<?xml version="1.0" encoding="UTF-8" standalone="no"?>
<!DOCTYPE svg PUBLIC "-//W3C//DTD SVG 1.1//EN" "http://www.w3.org/Graphics/SVG/1.1/DTD/svg11.dtd">
<svg width="100%" height="100%" viewBox="0 0 20 20" version="1.1" xmlns="http://www.w3.org/2000/svg" xmlns:xlink="http://www.w3.org/1999/xlink" xml:space="preserve" xmlns:serif="http://www.serif.com/" style="fill-rule:evenodd;clip-rule:evenodd;stroke-linejoin:round;stroke-miterlimit:1.5;">
    <g transform="matrix(1,0,0,1,-23.0927,0)">
        <g id="Eraser" transform="matrix(0.0166667,0,0,0.01,23.0927,0)">
            <rect x="0" y="0" width="1200" height="2000" style="fill:none;"/>
            <g transform="matrix(0.866025,-0.833333,0.3,0.866025,-193.66,668.885)">
                <g transform="matrix(77.8992,-6.18222e-15,-5.55112e-15,100,-1974.27,-35.2518)">
                    <path d="M36.266,3.41C36.266,2.768 35.864,2.247 35.37,2.247L30.695,2.247C30.2,2.247 29.799,2.768 29.799,3.41L29.799,5.736C29.799,6.378 30.2,6.899 30.695,6.899L35.37,6.899C35.864,6.899 36.266,6.378 36.266,5.736L36.266,3.41Z" style="fill:rgb(255,216,226);"/>
                    <path d="M36.908,3.41C36.908,2.308 36.219,1.414 35.37,1.414C35.37,1.414 30.695,1.414 30.695,1.414C29.846,1.414 29.157,2.308 29.157,3.41L29.157,5.736C29.157,6.838 29.846,7.732 30.695,7.732C30.695,7.732 35.37,7.732 35.37,7.732C36.219,7.732 36.908,6.838 36.908,5.736C36.908,5.736 36.908,3.41 36.908,3.41ZM36.266,3.41C36.266,2.768 35.864,2.247 35.37,2.247L30.695,2.247C30.2,2.247 29.799,2.768 29.799,3.41L29.799,5.736C29.799,6.378 30.2,6.899 30.695,6.899L35.37,6.899C35.864,6.899 36.266,6.378 36.266,5.736L36.266,3.41Z" style="fill:rgb(255,216,226);"/>
                </g>
                <g transform="matrix(79.2748,-2.64883e-14,2.08167e-14,210.153,0.63066,-1565.25)">
                    <rect x="4.061" y="9.793" width="7" height="5.207" style="fill:rgb(85,0,236);stroke:rgb(255,216,226);stroke-width:0.47px;"/>
                </g>
            </g>
        </g>
    </g>
</svg>
